<?xml version="1.0" encoding="UTF-8"?>
<svg version="1.1" xmlns="http://www.w3.org/2000/svg" width="512" height="512">
<path d="M0 0 C0.80902771 -0.00979385 1.61805542 -0.01958771 2.45159912 -0.02967834 C33.99626382 -0.33265162 63.24677324 3.35693925 92.34765625 16.23828125 C93.3519165 16.67479004 93.3519165 16.67479004 94.37646484 17.12011719 C118.2899912 27.58955541 138.88576707 42.86859304 157.34765625 61.23828125 C158.09305664 61.97763916 158.09305664 61.97763916 158.85351562 62.73193359 C194.7332825 98.82203013 213.46912497 150.31390658 214.39111328 200.60888672 C214.33020709 216.20445374 208.87741538 229.89676477 198.3125 241.36328125 C189.43599313 249.83390411 177.37507468 256.3492535 164.92266083 256.37250233 C163.26023543 256.37918909 163.26023543 256.37918909 161.56422567 256.38601094 C160.34674092 256.38582658 159.12925616 256.38564222 157.87487793 256.38545227 C155.93459709 256.3909673 155.93459709 256.3909673 153.95511866 256.39659375 C150.36162139 256.4066058 146.76814083 256.41032927 143.1746316 256.41298306 C139.29985502 256.41688855 135.42509163 256.42646682 131.55032349 256.43519592 C122.19034108 256.4549549 112.83035761 256.46502648 103.47035956 256.47392371 C99.06074945 256.47830812 94.65114054 256.48367459 90.24153137 256.48891258 C75.57926432 256.50592539 60.91699801 256.52041855 46.2547226 256.52766132 C42.45008849 256.52957117 38.64545439 256.53149151 34.84082031 256.53344727 C33.42241166 256.53417288 33.42241166 256.53417288 31.97534829 256.53491315 C16.66447075 256.54320964 1.35367143 256.56853989 -13.95717198 256.60102794 C-29.68261069 256.63412314 -45.40800969 256.65211237 -61.13348341 256.65530556 C-69.96021849 256.65746854 -78.78683955 256.66618586 -87.61354065 256.69176674 C-95.13252292 256.71350749 -102.65136348 256.72150765 -110.17037362 256.71179996 C-114.00380328 256.7072648 -117.83694074 256.70909527 -121.67033005 256.7285614 C-125.83498942 256.74952615 -129.99900495 256.73917708 -134.16369629 256.72602844 C-135.96315476 256.74248231 -135.96315476 256.74248231 -137.79896593 256.75926858 C-152.42193699 256.64814195 -165.04860859 251.08827009 -175.77734375 241.203125 C-187.76332445 228.64281606 -191.96186668 213.33892445 -191.62866211 196.3425293 C-189.76560286 142.70886954 -167.29870816 94.07359995 -129.65234375 56.23828125 C-129.15943848 55.74134766 -128.6665332 55.24441406 -128.15869141 54.73242188 C-95.53942444 22.30325691 -46.11789349 0.4633216 0 0 Z " fill="#000000" transform="translate(244.65234375,255.76171875)"/>
<path d="M0 0 C25.73042285 20.08393059 41.60278921 45.97704848 46.43359375 78.44140625 C50.01784776 108.85533247 42.26046537 139.66176848 23.265625 163.79296875 C22.47671875 164.74816406 21.6878125 165.70335937 20.875 166.6875 C19.66070312 168.16669922 19.66070312 168.16669922 18.421875 169.67578125 C-1.72590418 192.93017908 -30.33473561 205.82444085 -60.75 208.5 C-89.95054902 210.16612988 -118.46087585 201.18399001 -141.125 182.6875 C-141.64642578 182.26243164 -142.16785156 181.83736328 -142.70507812 181.39941406 C-165.46100032 162.47411957 -179.47057577 135.19742374 -182.92651367 105.87231445 C-185.79068663 74.34527411 -177.28348105 44.16806743 -157.125 19.6875 C-156.36574219 18.76324219 -155.60648438 17.83898438 -154.82421875 16.88671875 C-116.40584335 -27.56793167 -47.10255945 -34.43275903 0 0 Z " fill="#000000" transform="translate(324.125,21.3125)"/>
</svg>
