<?xml version="1.0" encoding="UTF-8"?>
<svg version="1.1" xmlns="http://www.w3.org/2000/svg" width="512" height="512">
<path d="M0 0 C1.79667627 1.53582549 3.58814855 3.07775488 5.375 4.625 C6.39207031 5.45902344 7.40914062 6.29304688 8.45703125 7.15234375 C15.98460397 13.36220139 22.97245453 20.04124386 29.875 26.9375 C30.72376709 27.78546143 31.57253418 28.63342285 32.44702148 29.50708008 C36.96179104 34.06218809 41.27492948 38.69293465 45.375 43.625 C49.37291851 41.79775809 51.81727752 39.19109224 54.6875 35.9375 C64.88403391 24.66084507 75.4083342 14.02224657 87.375 4.625 C88.25414062 3.87863281 89.13328125 3.13226563 90.0390625 2.36328125 C96.73200881 -3.3170435 103.71784682 -8.0877534 111.375 -12.375 C111.97940918 -12.71418457 112.58381836 -13.05336914 113.20654297 -13.40283203 C141.04430383 -28.75437918 174.7065504 -34.43567447 205.63085938 -25.74072266 C233.72756759 -17.16236295 256.22527105 1.95272584 270.30175781 27.59204102 C287.08621418 59.32443794 289.17977953 94.87729643 279.1640625 129.11523438 C272.74673993 149.5267678 261.54615429 166.7367623 247.79980469 182.93261719 C245.91982195 185.16566042 244.11484968 187.45406078 242.3125 189.75 C227.84656596 207.83241755 211.77714734 224.31132782 195.4375 240.6875 C194.75569672 241.37198212 194.07389343 242.05646423 193.37142944 242.76168823 C180.13117483 256.04133712 180.13117483 256.04133712 174.01977539 261.2253418 C171.28072225 263.55619999 168.6850994 266.04001997 166.0625 268.5 C161.29089105 272.93965293 156.3933201 277.14159141 151.30859375 281.22265625 C147.82596296 284.07461089 144.44727552 287.03330062 141.0625 290 C134.57369349 295.66671015 127.89980477 301.03565484 121.08251953 306.29980469 C119.40961985 307.59813175 117.74793468 308.90939208 116.08984375 310.2265625 C57.03634271 357.10740288 57.03634271 357.10740288 44.53125 356.90209961 C37.32348303 355.97582974 30.80201836 350.3439699 25.0625 346.25 C23.76143311 345.32960938 23.76143311 345.32960938 22.43408203 344.390625 C2.1169711 329.96514504 -17.61563631 314.843762 -36.88525391 299.04882812 C-38.44448327 297.77273696 -40.009011 296.50312619 -41.57421875 295.234375 C-51.75748199 286.96883579 -61.70762935 278.43335995 -71.41796875 269.6171875 C-73.36126001 267.86306619 -75.32859448 266.14527306 -77.3125 264.4375 C-88.85422508 254.35260118 -99.80015359 243.61462296 -110.61669922 232.76367188 C-112.648262 230.72667579 -114.68521836 228.69518049 -116.72265625 226.6640625 C-118.04459207 225.34146683 -119.36621817 224.01856151 -120.6875 222.6953125 C-121.28240234 222.10243439 -121.87730469 221.50955627 -122.49023438 220.89871216 C-126.18732003 217.181242 -129.69133956 213.33791973 -133.11639404 209.36828613 C-134.99041036 207.20274606 -136.93199567 205.10364642 -138.875 203 C-143.41824492 197.9647624 -147.58350757 192.68839238 -151.73046875 187.328125 C-153.67212086 184.82404961 -155.65347076 182.36124285 -157.67578125 179.921875 C-164.55502092 171.59563791 -170.44140988 163.10334774 -175.625 153.625 C-176.11009033 152.74545654 -176.11009033 152.74545654 -176.60498047 151.84814453 C-186.00577687 134.59169031 -191.93715541 114.36314917 -192.625 94.625 C-192.66496094 93.65046875 -192.70492187 92.6759375 -192.74609375 91.671875 C-193.45119336 57.9929995 -181.42958925 25.75408257 -158.26708984 1.29394531 C-115.31001644 -42.3656672 -45.28829176 -36.60195761 0 0 Z " fill="#FD5E54" transform="translate(209.625,92.375)"/>
<path d="M0 0 C1.79667627 1.53582549 3.58814855 3.07775488 5.375 4.625 C6.39207031 5.45902344 7.40914062 6.29304688 8.45703125 7.15234375 C15.98460397 13.36220139 22.97245453 20.04124386 29.875 26.9375 C30.72376709 27.78546143 31.57253418 28.63342285 32.44702148 29.50708008 C36.96179104 34.06218809 41.27492948 38.69293465 45.375 43.625 C49.37291851 41.79775809 51.81727752 39.19109224 54.6875 35.9375 C64.88403391 24.66084507 75.4083342 14.02224657 87.375 4.625 C88.25414062 3.87863281 89.13328125 3.13226563 90.0390625 2.36328125 C96.73200881 -3.3170435 103.71784682 -8.0877534 111.375 -12.375 C111.97940918 -12.71418457 112.58381836 -13.05336914 113.20654297 -13.40283203 C141.04430383 -28.75437918 174.7065504 -34.43567447 205.63085938 -25.74072266 C233.72756759 -17.16236295 256.22527105 1.95272584 270.30175781 27.59204102 C287.08621418 59.32443794 289.17977953 94.87729643 279.1640625 129.11523438 C272.74673993 149.5267678 261.54615429 166.7367623 247.79980469 182.93261719 C245.91982195 185.16566042 244.11484968 187.45406078 242.3125 189.75 C227.84656596 207.83241755 211.77714734 224.31132782 195.4375 240.6875 C194.75569672 241.37198212 194.07389343 242.05646423 193.37142944 242.76168823 C180.13117483 256.04133712 180.13117483 256.04133712 174.01977539 261.2253418 C171.28072225 263.55619999 168.6850994 266.04001997 166.0625 268.5 C161.29089105 272.93965293 156.3933201 277.14159141 151.30859375 281.22265625 C147.82596296 284.07461089 144.44727552 287.03330062 141.0625 290 C134.57369349 295.66671015 127.89980477 301.03565484 121.08251953 306.29980469 C119.40961985 307.59813175 117.74793468 308.90939208 116.08984375 310.2265625 C57.03634271 357.10740288 57.03634271 357.10740288 44.53125 356.90209961 C37.32348303 355.97582974 30.80201836 350.3439699 25.0625 346.25 C23.76143311 345.32960938 23.76143311 345.32960938 22.43408203 344.390625 C2.1169711 329.96514504 -17.61563631 314.843762 -36.88525391 299.04882812 C-38.44448327 297.77273696 -40.009011 296.50312619 -41.57421875 295.234375 C-51.75748199 286.96883579 -61.70762935 278.43335995 -71.41796875 269.6171875 C-73.36126001 267.86306619 -75.32859448 266.14527306 -77.3125 264.4375 C-88.85422508 254.35260118 -99.80015359 243.61462296 -110.61669922 232.76367188 C-112.648262 230.72667579 -114.68521836 228.69518049 -116.72265625 226.6640625 C-118.04459207 225.34146683 -119.36621817 224.01856151 -120.6875 222.6953125 C-121.28240234 222.10243439 -121.87730469 221.50955627 -122.49023438 220.89871216 C-126.18732003 217.181242 -129.69133956 213.33791973 -133.11639404 209.36828613 C-134.99041036 207.20274606 -136.93199567 205.10364642 -138.875 203 C-143.41824492 197.9647624 -147.58350757 192.68839238 -151.73046875 187.328125 C-153.67212086 184.82404961 -155.65347076 182.36124285 -157.67578125 179.921875 C-164.55502092 171.59563791 -170.44140988 163.10334774 -175.625 153.625 C-176.11009033 152.74545654 -176.11009033 152.74545654 -176.60498047 151.84814453 C-186.00577687 134.59169031 -191.93715541 114.36314917 -192.625 94.625 C-192.66496094 93.65046875 -192.70492187 92.6759375 -192.74609375 91.671875 C-193.45119336 57.9929995 -181.42958925 25.75408257 -158.26708984 1.29394531 C-115.31001644 -42.3656672 -45.28829176 -36.60195761 0 0 Z M-113.625 -10.375 C-114.29354004 -10.11187012 -114.96208008 -9.84874023 -115.65087891 -9.57763672 C-126.67584669 -5.1531266 -135.74547711 0.77875266 -144.625 8.625 C-145.38167969 9.28113281 -146.13835937 9.93726562 -146.91796875 10.61328125 C-160.61733572 23.38295066 -170.20521986 41.58290233 -174.625 59.625 C-174.92277344 60.78644531 -175.22054687 61.94789063 -175.52734375 63.14453125 C-182.30524841 93.47331203 -176.07793744 126.3778778 -159.625 152.625 C-157.10951701 156.42156402 -154.42776774 160.0364563 -151.625 163.625 C-150.7706104 164.7355056 -149.91645572 165.84619197 -149.0625 166.95703125 C-140.7572577 177.69489619 -132.05021792 188.08309878 -122.90161133 198.11303711 C-121.53769787 199.61794924 -120.18275085 201.13117343 -118.84643555 202.66064453 C-111.72662555 210.76537226 -104.06722954 218.33375405 -96.43188477 225.94848633 C-94.06085437 228.3141419 -91.69523578 230.68511514 -89.33007812 233.05664062 C-87.80240396 234.58365417 -86.27441972 236.11035757 -84.74609375 237.63671875 C-84.05003525 238.33480148 -83.35397675 239.03288422 -82.63682556 239.75212097 C-78.67750803 243.69284081 -74.61993776 247.46097233 -70.3843689 251.10374451 C-67.7993073 253.33894325 -65.31314585 255.67072709 -62.8125 258 C-58.21321468 262.24985297 -53.4741206 266.26076503 -48.59375 270.1875 C-45.10217928 273.05426333 -41.70979272 276.02281195 -38.3125 279 C-31.82363943 284.6666532 -25.14980924 290.03565138 -18.33251953 295.29980469 C-16.65961985 296.59813175 -14.99793468 297.90939208 -13.33984375 299.2265625 C-0.12787071 309.71515993 13.40035053 319.79411991 27.0625 329.6875 C28.12065918 330.45489502 28.12065918 330.45489502 29.20019531 331.23779297 C30.55812352 332.21587437 31.92147801 333.18647257 33.29052734 334.14892578 C34.77093243 335.19724262 36.23318302 336.27140706 37.68212891 337.36279297 C42.16750572 340.68458561 42.16750572 340.68458561 47.5 341.80859375 C51.25842657 340.26130673 54.18559825 338.18061206 57.375 335.6875 C58.7154208 334.67091829 60.0565822 333.65531246 61.3984375 332.640625 C62.40342285 331.87395508 62.40342285 331.87395508 63.42871094 331.09179688 C66.24043348 328.97277667 69.1178126 326.95984629 72 324.9375 C100.27189171 304.90747219 127.51650421 282.90656241 153.16796875 259.6171875 C155.11126001 257.86306619 157.07859448 256.14527306 159.0625 254.4375 C170.90720154 244.0847122 182.11831021 233.04500712 193.22119141 221.90917969 C195.39761269 219.72733092 197.57942239 217.55097087 199.76171875 215.375 C201.17480037 213.96125848 202.58757223 212.54720726 204 211.1328125 C204.6386499 210.49618683 205.2772998 209.85956116 205.93530273 209.2036438 C210.27885344 204.83771176 214.35617584 200.28969965 218.375 195.625 C219.39662451 194.46844807 220.41978348 193.31324741 221.4453125 192.16015625 C229.02558849 183.56925866 236.11577342 174.69002039 242.96484375 165.50683594 C244.190774 163.8708473 245.43736757 162.2503825 246.6875 160.6328125 C266.9083663 134.01393772 273.61213259 100.9172814 269.6875 68.0625 C265.0393285 41.55189428 249.58580655 16.42658879 227.69140625 0.7265625 C221.53419208 -3.17518217 215.04440595 -6.44059708 208.375 -9.375 C207.76720703 -9.64602539 207.15941406 -9.91705078 206.53320312 -10.19628906 C183.58202915 -19.65861518 154.58687642 -15.80466829 132.25268555 -6.56835938 C119.8035552 -1.15968944 108.74032031 5.85553618 98.375 14.625 C97.39917969 15.41648437 96.42335938 16.20796875 95.41796875 17.0234375 C87.47123432 23.55270497 80.14112812 30.6704697 72.875 37.9375 C72.39832886 38.41326477 71.92165771 38.88902954 71.43054199 39.37921143 C64.99688462 45.81017286 64.99688462 45.81017286 59.03125 52.66796875 C55.69687867 56.3799086 53.53944068 57.35405109 48.69140625 57.9609375 C47.32822266 57.98027344 47.32822266 57.98027344 45.9375 58 C45.03128906 58.02835937 44.12507812 58.05671875 43.19140625 58.0859375 C36.98586952 57.07032955 33.18274664 52.58887249 29.1875 48.0625 C17.82858483 35.45338396 5.99661167 22.81405243 -7.625 12.625 C-8.88376953 11.64080078 -8.88376953 11.64080078 -10.16796875 10.63671875 C-38.06587528 -10.58547012 -79.50801228 -24.23379938 -113.625 -10.375 Z " fill="#020000" transform="translate(209.625,92.375)"/>
</svg>
